<svg class="icon" viewBox="0 0 1024 1024" xmlns="http://www.w3.org/2000/svg" width="200" height="200"><path d="M60 59.998h904v904H60z" fill="#FBF7F6"/><path d="M240.001 559.998h240V480h-80V240h80v79.999H560V160H160V320h80v-80h80V480h-80zM20 20h80v80H20zm0 904h80v80H20zm904 0h80v80h-80zm0-904h80v80h-80z" fill="#8481E2"/><path d="M863.999 839.993h-.016c-11.046 0-19.992 8.954-19.992 20s8.962 20 20.008 20 20-8.954 20-20-8.954-20-20-20zM99.999 0H20C8.955 0 0 8.954 0 20v79.998c0 11.046 8.954 20 20 20h80c11.046 0 20-8.954 20-20V20c0-11.046-8.954-20-20-20zM80 79.998H40V40h40v39.998zM1004 0h-79.998c-11.046 0-20 8.954-20 20v79.998c0 11.046 8.954 20 20 20H1004c11.046 0 20-8.954 20-20V20c0-11.046-8.954-20-20-20zm-20 79.998h-39.998V40H984v39.998zM100 904H20c-11.046 0-20 8.954-20 20v80c0 11.046 8.954 20 20 20h80c11.046 0 20-8.954 20-20v-80c0-11.046-8.954-20-20-20zm-20 80H40v-40h40v40zm924-80h-79.998c-11.046 0-20 8.954-20 20v80c0 11.046 8.954 20 20 20H1004c11.046 0 20-8.954 20-20v-80c0-11.046-8.954-20-20-20zm-20 80h-39.998v-40H984v40zM192.001 80h40c11.046 0 20-8.954 20-20s-8.954-20-20-20h-40c-11.046 0-20 8.954-20 20s8.954 20 20 20zm120 0h40c11.046 0 20-8.954 20-20s-8.954-20-20-20h-40c-11.046 0-20 8.954-20 20s8.954 20 20 20zm120 0h40c11.045 0 20-8.954 20-20s-8.955-20-20-20h-40c-11.047 0-20 8.954-20 20s8.953 20 20 20zM552 80h40c11.046 0 20-8.954 20-20s-8.954-20-20-20h-40c-11.046 0-20 8.954-20 20s8.954 20 20 20zm120 0h40c11.045 0 20-8.954 20-20s-8.955-20-20-20h-40c-11.047 0-20 8.954-20 20s8.953 20 20 20zm119.997 0h40c11.046 0 20-8.954 20-20s-8.954-20-20-20h-40c-11.046 0-20 8.954-20 20s8.954 20 20 20zM40 831.997c0 11.046 8.954 20 20 20s20-8.954 20-20v-40c0-11.046-8.954-20-20-20s-20 8.954-20 20v40zm0-119.998c0 11.046 8.954 20 20 20s20-8.954 20-20v-40c0-11.046-8.954-20-20-20s-20 8.954-20 20v40zm0-120c0 11.047 8.954 20 20 20s20-8.953 20-20v-40c0-11.045-8.954-20-20-20s-20 8.955-20 20v40zM40 472c0 11.046 8.954 20 20 20s20-8.954 20-20v-40c0-11.046-8.954-20-20-20s-20 8.954-20 20v40zm0-120c0 11.047 8.954 20 20 20s20-8.953 20-20v-40c0-11.045-8.954-20-20-20s-20 8.955-20 20v40zm20-99.999c11.046 0 20-8.954 20-20v-40c0-11.046-8.954-20-20-20s-20 8.954-20 20v40c0 11.046 8.954 20 20 20zm771.999 692h-40c-11.046 0-20 8.953-20 20s8.954 20 20 20h40c11.046 0 20-8.955 20-20s-8.954-20-20-20zm-120 0h-40c-11.046 0-20 8.953-20 20s8.954 20 20 20h40c11.046 0 20-8.955 20-20s-8.954-20-20-20zm-120 0h-40c-11.045 0-20 8.953-20 20s8.955 20 20 20h40c11.047 0 20-8.955 20-20s-8.953-20-20-20zM472 944h-40c-11.046 0-20 8.953-20 20s8.954 20 20 20h40c11.046 0 20-8.955 20-20s-8.954-20-20-20zm-120 0h-40c-11.045 0-20 8.953-20 20s8.955 20 20 20h40c11.047 0 20-8.955 20-20s-8.953-20-20-20zm-119.997 0h-40c-11.046 0-20 8.953-20 20s8.954 20 20 20h40c11.046 0 20-8.955 20-20s-8.954-20-20-20zM964 252c11.046 0 20-8.954 20-20v-40c0-11.046-8.954-20-20-20s-20 8.954-20 20v40c0 11.046 8.954 20 20 20zm-20 100c0 11.046 8.954 20 20 20s20-8.954 20-20v-40c0-11.046-8.954-20-20-20s-20 8.954-20 20v40zm0 120c0 11.045 8.954 20 20 20s20-8.955 20-20v-40c0-11.047-8.954-20-20-20s-20 8.953-20 20v40zM944 592c0 11.046 8.954 20 20 20s20-8.954 20-20v-40c0-11.046-8.954-20-20-20s-20 8.954-20 20v40zm0 120c0 11.045 8.954 20 20 20s20-8.955 20-20v-40c0-11.047-8.954-20-20-20s-20 8.953-20 20v40zm0 119.997c0 11.046 8.954 20 20 20s20-8.954 20-20v-40c0-11.046-8.954-20-20-20s-20 8.954-20 20v40zM160.001 339.999h80c11.046 0 20-8.954 20-20v-60h40v200h-60c-11.046 0-20 8.953-20 20v79.999c0 11.046 8.954 20 20 20h240c11.045 0 19.999-8.954 19.999-20v-80c0-11.046-8.954-20-20-20h-60V260h40v60c0 11.046 8.954 20 20 20h80c11.046 0 20-8.954 20-20v-160c0-11.046-8.954-20-20-20H380.003c-11.046 0-20 8.954-20 20s8.954 20 20 20H540v120h-40v-60c0-11.046-8.954-20-20-20h-80c-11.046 0-20 8.954-20 20v240c0 11.045 8.954 19.999 20 19.999h60v40H260.001v-40h60c11.046 0 20-8.954 20-20V240c0-11.046-8.954-20-20-20h-80c-11.046 0-20 8.954-20 20v60h-40v-120h20.002c11.046 0 20-8.954 20-20s-8.954-20-20-20h-40.002c-11.046 0-20 8.954-20 20v160c0 11.046 8.954 20 20 20zm703.998-200h-204c-11.046 0-20 8.954-20 20s8.954 20 20 20h204c11.046 0 20-8.954 20-20 0-11.044-8.954-20-20-20zm0 87.5h-204c-11.046 0-20 8.954-20 20s8.954 20 20 20h204c11.046 0 20-8.954 20-20 0-11.044-8.954-20-20-20zm0 87.5h-204c-11.046 0-20 8.954-20 20s8.954 20 20 20h204c11.046 0 20-8.954 20-20s-8.954-20-20-20zm0 87.5h-204c-11.046 0-20 8.953-20 20s8.954 20 20 20h204c11.046 0 20-8.955 20-20s-8.954-20-20-20zm0 87.497h-204c-11.046 0-20 8.954-20 20s8.954 20 20 20h204c11.046 0 20-8.954 20-20 0-11.044-8.954-20-20-20zm0 87.5h-204c-11.046 0-20 8.954-20 20s8.954 20 20 20h204c11.046 0 20-8.954 20-20s-8.954-20-20-20zm0 87.5H160c-11.046 0-20 8.953-20 20s8.954 20 20 20h704c11.046 0 20-8.955 20-20-.002-11.047-8.956-20-20.002-20zm0 87.5H160c-11.046 0-20 8.953-20 19.999s8.954 20 20 20h704c11.046 0 20-8.954 20-20-.002-11.046-8.956-20-20.002-20zm-70.006 107.497c0-11.046-8.954-20-20-20H160.001c-11.046 0-20 8.954-20 20s8.954 20 20 20h613.992c11.046 0 20-8.954 20-20z"/><path d="M290.009 180c11.046 0 20-8.955 20-20s-8.954-20-20-20h-.014c-11.046 0-19.992 8.953-19.992 20s8.96 20 20.006 20z"/></svg>