<svg class="icon" viewBox="0 0 1024 1024" xmlns="http://www.w3.org/2000/svg" width="200" height="200"><path d="M853.333 1024H170.667c-25.6 0-42.667-17.067-42.667-42.667V42.667C128 17.067 145.067 0 170.667 0h682.666C878.933 0 896 17.067 896 42.667v938.666c0 25.6-17.067 42.667-42.667 42.667zm-640-85.333h597.334V85.333H213.333v853.334z" fill="#333"/><path d="M554.667 298.667H341.333c-25.6 0-42.666-17.067-42.666-42.667s17.066-42.667 42.666-42.667h213.334c25.6 0 42.666 17.067 42.666 42.667s-17.066 42.667-42.666 42.667zM682.667 469.333H341.333c-25.6 0-42.666-17.066-42.666-42.666S315.733 384 341.333 384h341.334c25.6 0 42.666 17.067 42.666 42.667s-17.066 42.666-42.666 42.666zM597.333 640h-256c-25.6 0-42.666-17.067-42.666-42.667s17.066-42.666 42.666-42.666h256c25.6 0 42.667 17.066 42.667 42.666S622.933 640 597.333 640zM682.667 810.667H341.333c-25.6 0-42.666-17.067-42.666-42.667s17.066-42.667 42.666-42.667h341.334c25.6 0 42.666 17.067 42.666 42.667s-17.066 42.667-42.666 42.667z" fill="#333"/></svg>