<svg class="icon" viewBox="0 0 1024 1024" xmlns="http://www.w3.org/2000/svg" width="200" height="200"><path d="M0 512a512 512 0 1 0 1024 0A512 512 0 1 0 0 512Z" fill="#F76363"/><path d="M176.552 564.966a35.31 35.31 0 0 1-35.31-35.31c0-136.299 110.874-247.173 247.172-247.173h247.172a35.31 35.31 0 0 1 0 70.62H388.414c-97.35 0-176.552 79.202-176.552 176.552a35.31 35.31 0 0 1-35.31 35.31z" fill="#FFF"/><path d="M459.07 494.345a35.31 35.31 0 0 1-20.816-63.859l154.96-112.693L438.272 205.1a35.293 35.293 0 1 1 41.56-57.097l233.437 169.79-233.472 169.79a35.063 35.063 0 0 1-20.727 6.762zM617.93 741.517H370.759a35.31 35.31 0 0 1 0-70.62H617.93c97.35 0 176.552-79.202 176.552-176.552a35.31 35.31 0 0 1 70.62 0c0 136.298-110.874 247.172-247.172 247.172z" fill="#FFF"/><path d="M547.275 882.759c-7.186 0-14.46-2.19-20.745-6.762l-233.454-169.79 233.472-169.79a35.293 35.293 0 1 1 41.56 57.097L413.131 706.207 568.073 818.9a35.293 35.293 0 0 1-20.798 63.859z" fill="#FFF"/></svg>