<?xml version="1.0" standalone="no"?><!DOCTYPE svg PUBLIC "-//W3C//DTD SVG 1.1//EN" "http://www.w3.org/Graphics/SVG/1.1/DTD/svg11.dtd"><svg t="1667290186658" class="icon" viewBox="0 0 1024 1024" version="1.1" xmlns="http://www.w3.org/2000/svg" p-id="8969" xmlns:xlink="http://www.w3.org/1999/xlink" width="200" height="200"><path d="M59.999766 59.997766h904.000468v904.000468H59.999766z" fill="#FBF7F6" p-id="8970"></path><path d="M240.001062 559.997813h239.999063v-79.997688h-79.999688V239.999063h79.999688v79.999687h79.999688V160.001375h-399.998438V319.99875h79.999687v-79.999687h79.999688v240.001062h-79.999688zM19.999922 19.999922h79.999687v79.999687H19.999922zM19.999922 924.000391h79.999687v79.999687H19.999922zM924.000391 924.000391h79.999687v79.999687h-79.999687zM924.000391 19.999922h79.999687v79.999687h-79.999687z" fill="#8481E2" p-id="8971"></path><path d="M863.998625 839.992719h-0.016c-11.045957 0-19.991922 8.953965-19.991922 19.999922s8.961965 19.999922 20.007922 19.999922 19.999922-8.953965 19.999922-19.999922-8.953965-19.999922-19.999922-19.999922zM99.999609 0H19.999922C8.953965 0 0 8.953965 0 19.999922v79.997687c0 11.045957 8.953965 19.999922 19.999922 19.999922h79.999687c11.045957 0 19.999922-8.953965 19.999922-19.999922V19.999922c0-11.045957-8.953965-19.999922-19.999922-19.999922zM79.999688 79.997688H39.999844V39.999844h39.999844v39.997844zM1004.000078 0h-79.997687c-11.045957 0-19.999922 8.953965-19.999922 19.999922v79.997687c0 11.045957 8.953965 19.999922 19.999922 19.999922h79.997687c11.045957 0 19.999922-8.953965 19.999922-19.999922V19.999922c0-11.045957-8.953965-19.999922-19.999922-19.999922z m-19.999922 79.997688h-39.997844V39.999844h39.997844v39.997844zM99.999609 904.000469H19.999922c-11.045957 0-19.999922 8.953965-19.999922 19.999922v79.999687c0 11.045957 8.953965 19.999922 19.999922 19.999922h79.999687c11.045957 0 19.999922-8.953965 19.999922-19.999922v-79.999687c0-11.045957-8.953965-19.999922-19.999922-19.999922z m-19.999921 79.999687H39.999844v-39.999844h39.999844v39.999844zM1004.000078 904.000469h-79.997687c-11.045957 0-19.999922 8.953965-19.999922 19.999922v79.999687c0 11.045957 8.953965 19.999922 19.999922 19.999922h79.997687c11.045957 0 19.999922-8.953965 19.999922-19.999922v-79.999687c0-11.045957-8.953965-19.999922-19.999922-19.999922z m-19.999922 79.999687h-39.997844v-39.999844h39.997844v39.999844zM192.00125 79.999688h39.999844c11.045957 0 19.999922-8.953965 19.999922-19.999922s-8.953965-19.999922-19.999922-19.999922h-39.999844c-11.045957 0-19.999922 8.953965-19.999922 19.999922s8.953965 19.999922 19.999922 19.999922zM312.000781 79.999688h39.999844c11.045957 0 19.999922-8.953965 19.999922-19.999922s-8.953965-19.999922-19.999922-19.999922h-39.999844c-11.045957 0-19.999922 8.953965-19.999922 19.999922s8.953965 19.999922 19.999922 19.999922zM432.000312 79.999688h39.999844c11.045957 0 19.999922-8.953965 19.999922-19.999922s-8.953965-19.999922-19.999922-19.999922h-39.999844c-11.045957 0-19.999922 8.953965-19.999921 19.999922s8.953965 19.999922 19.999921 19.999922zM551.999844 79.999688h39.999844c11.045957 0 19.999922-8.953965 19.999921-19.999922s-8.953965-19.999922-19.999921-19.999922h-39.999844c-11.045957 0-19.999922 8.953965-19.999922 19.999922s8.953965 19.999922 19.999922 19.999922zM671.999375 79.999688h39.999844c11.045957 0 19.999922-8.953965 19.999922-19.999922s-8.953965-19.999922-19.999922-19.999922h-39.999844c-11.045957 0-19.999922 8.953965-19.999922 19.999922s8.953965 19.999922 19.999922 19.999922zM791.996906 79.999688h39.999844c11.045957 0 19.999922-8.953965 19.999922-19.999922s-8.953965-19.999922-19.999922-19.999922h-39.999844c-11.045957 0-19.999922 8.953965-19.999922 19.999922s8.953965 19.999922 19.999922 19.999922zM39.999844 831.99675c0 11.045957 8.953965 19.999922 19.999922 19.999922s19.999922-8.953965 19.999922-19.999922v-39.999844c0-11.045957-8.953965-19.999922-19.999922-19.999922s-19.999922 8.953965-19.999922 19.999922v39.999844zM39.999844 711.999219c0 11.045957 8.953965 19.999922 19.999922 19.999922s19.999922-8.953965 19.999922-19.999922v-39.999844c0-11.045957-8.953965-19.999922-19.999922-19.999922s-19.999922 8.953965-19.999922 19.999922v39.999844zM39.999844 591.999688c0 11.045957 8.953965 19.999922 19.999922 19.999921s19.999922-8.953965 19.999922-19.999921v-39.999844c0-11.045957-8.953965-19.999922-19.999922-19.999922s-19.999922 8.953965-19.999922 19.999922v39.999844zM39.999844 472.000156c0 11.045957 8.953965 19.999922 19.999922 19.999922s19.999922-8.953965 19.999922-19.999922v-39.999844c0-11.045957-8.953965-19.999922-19.999922-19.999921s-19.999922 8.953965-19.999922 19.999921v39.999844zM39.999844 352.000625c0 11.045957 8.953965 19.999922 19.999922 19.999922s19.999922-8.953965 19.999922-19.999922v-39.999844c0-11.045957-8.953965-19.999922-19.999922-19.999922s-19.999922 8.953965-19.999922 19.999922v39.999844zM59.999766 252.001016c11.045957 0 19.999922-8.953965 19.999922-19.999922v-39.999844c0-11.045957-8.953965-19.999922-19.999922-19.999922s-19.999922 8.953965-19.999922 19.999922v39.999844c0 11.045957 8.953965 19.999922 19.999922 19.999922zM831.99875 944.000312h-39.999844c-11.045957 0-19.999922 8.953965-19.999922 19.999922s8.953965 19.999922 19.999922 19.999922h39.999844c11.045957 0 19.999922-8.953965 19.999922-19.999922s-8.953965-19.999922-19.999922-19.999922zM711.999219 944.000312h-39.999844c-11.045957 0-19.999922 8.953965-19.999922 19.999922s8.953965 19.999922 19.999922 19.999922h39.999844c11.045957 0 19.999922-8.953965 19.999922-19.999922s-8.953965-19.999922-19.999922-19.999922zM591.999688 944.000312h-39.999844c-11.045957 0-19.999922 8.953965-19.999922 19.999922s8.953965 19.999922 19.999922 19.999922h39.999844c11.045957 0 19.999922-8.953965 19.999921-19.999922s-8.953965-19.999922-19.999921-19.999922zM472.000156 944.000312h-39.999844c-11.045957 0-19.999922 8.953965-19.999921 19.999922s8.953965 19.999922 19.999921 19.999922h39.999844c11.045957 0 19.999922-8.953965 19.999922-19.999922s-8.953965-19.999922-19.999922-19.999922zM352.000625 944.000312h-39.999844c-11.045957 0-19.999922 8.953965-19.999922 19.999922s8.953965 19.999922 19.999922 19.999922h39.999844c11.045957 0 19.999922-8.953965 19.999922-19.999922s-8.953965-19.999922-19.999922-19.999922zM232.003094 944.000312h-39.999844c-11.045957 0-19.999922 8.953965-19.999922 19.999922s8.953965 19.999922 19.999922 19.999922h39.999844c11.045957 0 19.999922-8.953965 19.999922-19.999922s-8.953965-19.999922-19.999922-19.999922zM964.000234 252.001016c11.045957 0 19.999922-8.953965 19.999922-19.999922v-39.999844c0-11.045957-8.953965-19.999922-19.999922-19.999922s-19.999922 8.953965-19.999922 19.999922v39.999844c0 11.045957 8.953965 19.999922 19.999922 19.999922zM944.000312 352.000625c0 11.045957 8.953965 19.999922 19.999922 19.999922s19.999922-8.953965 19.999922-19.999922v-39.999844c0-11.045957-8.953965-19.999922-19.999922-19.999922s-19.999922 8.953965-19.999922 19.999922v39.999844zM944.000312 472.000156c0 11.045957 8.953965 19.999922 19.999922 19.999922s19.999922-8.953965 19.999922-19.999922v-39.999844c0-11.045957-8.953965-19.999922-19.999922-19.999921s-19.999922 8.953965-19.999922 19.999921v39.999844zM944.000312 591.999688c0 11.045957 8.953965 19.999922 19.999922 19.999921s19.999922-8.953965 19.999922-19.999921v-39.999844c0-11.045957-8.953965-19.999922-19.999922-19.999922s-19.999922 8.953965-19.999922 19.999922v39.999844zM944.000312 711.999219c0 11.045957 8.953965 19.999922 19.999922 19.999922s19.999922-8.953965 19.999922-19.999922v-39.999844c0-11.045957-8.953965-19.999922-19.999922-19.999922s-19.999922 8.953965-19.999922 19.999922v39.999844zM944.000312 831.99675c0 11.045957 8.953965 19.999922 19.999922 19.999922s19.999922-8.953965 19.999922-19.999922v-39.999844c0-11.045957-8.953965-19.999922-19.999922-19.999922s-19.999922 8.953965-19.999922 19.999922v39.999844zM160.001375 339.998672h79.999687c11.045957 0 19.999922-8.953965 19.999922-19.999922v-59.999766h39.999844v199.999219h-59.999766c-11.045957 0-19.999922 8.953965-19.999921 19.999922v79.999688c0 11.045957 8.953965 19.999922 19.999921 19.999921h239.999063c11.045957 0 19.999922-8.953965 19.999922-19.999921v-79.999688c0-11.045957-8.953965-19.999922-19.999922-19.999922h-59.999766V259.998984h39.999844v59.999766c0 11.045957 8.953965 19.999922 19.999922 19.999922h79.999688c11.045957 0 19.999922-8.953965 19.999921-19.999922V159.999375c0-11.045957-8.953965-19.999922-19.999921-19.999922h-179.997297c-11.045957 0-19.999922 8.953965-19.999922 19.999922s8.953965 19.999922 19.999922 19.999922h159.997375v119.999531h-39.999844v-59.999765c0-11.045957-8.953965-19.999922-19.999922-19.999922h-79.999688c-11.045957 0-19.999922 8.953965-19.999921 19.999922v239.999062c0 11.045957 8.953965 19.999922 19.999921 19.999922h59.999766v39.999844h-199.999219v-39.999844h59.999766c11.045957 0 19.999922-8.953965 19.999922-19.999922V239.999063c0-11.045957-8.953965-19.999922-19.999922-19.999922h-79.999688c-11.045957 0-19.999922 8.953965-19.999921 19.999922v59.999765h-39.999844V179.999297h20.001922c11.045957 0 19.999922-8.953965 19.999922-19.999922s-8.953965-19.999922-19.999922-19.999922H160.001375c-11.045957 0-19.999922 8.953965-19.999922 19.999922v159.999375c0 11.045957 8.953965 19.999922 19.999922 19.999922zM863.998625 139.999453h-203.999203c-11.045957 0-19.999922 8.953965-19.999922 19.999922s8.953965 19.999922 19.999922 19.999922h203.999203c11.045957 0 19.999922-8.953965 19.999922-19.999922 0-11.043957-8.953965-19.999922-19.999922-19.999922zM863.998625 227.499111h-203.999203c-11.045957 0-19.999922 8.953965-19.999922 19.999922s8.953965 19.999922 19.999922 19.999922h203.999203c11.045957 0 19.999922-8.953965 19.999922-19.999922 0-11.043957-8.953965-19.999922-19.999922-19.999922zM863.998625 314.99877h-203.999203c-11.045957 0-19.999922 8.953965-19.999922 19.999921s8.953965 19.999922 19.999922 19.999922h203.999203c11.045957 0 19.999922-8.953965 19.999922-19.999922s-8.953965-19.999922-19.999922-19.999921zM863.998625 402.498428h-203.999203c-11.045957 0-19.999922 8.953965-19.999922 19.999922s8.953965 19.999922 19.999922 19.999921h203.999203c11.045957 0 19.999922-8.953965 19.999922-19.999921s-8.953965-19.999922-19.999922-19.999922zM863.998625 489.996086h-203.999203c-11.045957 0-19.999922 8.953965-19.999922 19.999922s8.953965 19.999922 19.999922 19.999922h203.999203c11.045957 0 19.999922-8.953965 19.999922-19.999922 0-11.043957-8.953965-19.999922-19.999922-19.999922zM863.998625 577.495744h-203.999203c-11.045957 0-19.999922 8.953965-19.999922 19.999922s8.953965 19.999922 19.999922 19.999922h203.999203c11.045957 0 19.999922-8.953965 19.999922-19.999922s-8.953965-19.999922-19.999922-19.999922zM863.998625 664.995402h-703.99725c-11.045957 0-19.999922 8.953965-19.999922 19.999922s8.953965 19.999922 19.999922 19.999922h703.99925c11.045957 0 19.999922-8.953965 19.999922-19.999922-0.002-11.045957-8.955965-19.999922-20.001922-19.999922zM863.998625 752.495061h-703.99725c-11.045957 0-19.999922 8.953965-19.999922 19.999921s8.953965 19.999922 19.999922 19.999922h703.99925c11.045957 0 19.999922-8.953965 19.999922-19.999922-0.002-11.045957-8.955965-19.999922-20.001922-19.999921zM793.992898 859.992641c0-11.045957-8.953965-19.999922-19.999921-19.999922H160.001375c-11.045957 0-19.999922 8.953965-19.999922 19.999922s8.953965 19.999922 19.999922 19.999922h613.991602c11.045957 0 19.999922-8.953965 19.999921-19.999922z" p-id="8972"></path><path d="M290.008867 179.999297c11.045957 0 19.999922-8.953965 19.999922-19.999922s-8.953965-19.999922-19.999922-19.999922h-0.014c-11.045957 0-19.991922 8.953965-19.991922 19.999922s8.959965 19.999922 20.005922 19.999922z" p-id="8973"></path></svg>