<?xml version="1.0" standalone="no"?><!DOCTYPE svg PUBLIC "-//W3C//DTD SVG 1.1//EN" "http://www.w3.org/Graphics/SVG/1.1/DTD/svg11.dtd"><svg t="1666941313994" class="icon" viewBox="0 0 1024 1024" version="1.1" xmlns="http://www.w3.org/2000/svg" p-id="3574" xmlns:xlink="http://www.w3.org/1999/xlink" width="200" height="200"><path d="M853.333333 1024 170.666667 1024c-25.6 0-42.666667-17.066667-42.666667-42.666667L128 42.666667c0-25.6 17.066667-42.666667 42.666667-42.666667l682.666667 0c25.6 0 42.666667 17.066667 42.666667 42.666667l0 938.666667C896 1006.933333 878.933333 1024 853.333333 1024zM213.333333 938.666667l597.333333 0L810.666667 85.333333 213.333333 85.333333 213.333333 938.666667z" p-id="3575" fill="#333333"></path><path d="M554.666667 298.666667 341.333333 298.666667C315.733333 298.666667 298.666667 281.6 298.666667 256s17.066667-42.666667 42.666667-42.666667l213.333333 0c25.6 0 42.666667 17.066667 42.666667 42.666667S580.266667 298.666667 554.666667 298.666667z" p-id="3576" fill="#333333"></path><path d="M682.666667 469.333333 341.333333 469.333333c-25.6 0-42.666667-17.066667-42.666667-42.666667s17.066667-42.666667 42.666667-42.666667l341.333333 0c25.6 0 42.666667 17.066667 42.666667 42.666667S708.266667 469.333333 682.666667 469.333333z" p-id="3577" fill="#333333"></path><path d="M597.333333 640 341.333333 640c-25.6 0-42.666667-17.066667-42.666667-42.666667s17.066667-42.666667 42.666667-42.666667l256 0c25.6 0 42.666667 17.066667 42.666667 42.666667S622.933333 640 597.333333 640z" p-id="3578" fill="#333333"></path><path d="M682.666667 810.666667 341.333333 810.666667c-25.6 0-42.666667-17.066667-42.666667-42.666667s17.066667-42.666667 42.666667-42.666667l341.333333 0c25.6 0 42.666667 17.066667 42.666667 42.666667S708.266667 810.666667 682.666667 810.666667z" p-id="3579" fill="#333333"></path></svg>